<svg width="151" height="165" viewBox="0 0 151 165" fill="none" xmlns="http://www.w3.org/2000/svg">
<path fill-rule="evenodd" clip-rule="evenodd" d="M20.9389 42.0066L16.925 44.5425V76.1799C6.7276 71.913 0.411061 66.2702 0.186877 60.0862C-0.0741012 52.8873 7.97441 46.4218 20.9389 42.0066ZM16.925 148.475V161.111C70.9241 166.835 99.7393 165.728 150.242 161.111C144.014 108.049 139.139 79.0062 116.912 34.1176L87.429 0L20.9389 42.0066C31.9149 38.2685 46.4146 36 62.3785 36C97.2108 36 125.835 46.7925 126.317 60.0862C126.799 73.3898 98.9451 84.1725 64.1249 84.1725C45.5024 84.1725 28.6489 81.0855 16.925 76.1799V83.1032C8.33764 79.4548 2.18315 74.5691 0.175903 68.4367L0.83061 86.4964C3.15678 92.4691 8.98053 97.167 16.925 100.677V106.41C8.78351 102.718 2.9668 97.8423 1.02195 91.7745L1.69237 110.268C3.93738 116.156 9.42474 120.835 16.925 124.383V130.507C9.42586 126.989 4.08679 122.357 2.23489 116.58L2.9053 135.073C5.03298 140.654 10.0528 145.092 16.925 148.475ZM16.925 148.475V130.507C49.9153 145.983 124.71 139.896 128.317 114.935L128.987 133.408C126.457 156.527 50.1029 164.805 16.925 148.475ZM16.925 124.383C50.8503 140.432 125.959 133.348 128.47 110.494L127.8 92.0207C124.224 116.697 50.6404 121.701 16.925 106.41V124.383ZM16.925 100.677C51.2349 115.838 125.099 108.847 127.608 86.7229L126.954 68.673C123.387 92.5752 51.0014 97.581 16.925 83.1032V100.677Z" fill="white"/>
</svg>
