<svg width="153" height="165" viewBox="0 0 153 165" fill="none" xmlns="http://www.w3.org/2000/svg">
<path fill-rule="evenodd" clip-rule="evenodd" d="M64.2452 36C99.0774 36 127.701 46.7925 128.183 60.0862C128.665 73.3898 100.812 84.1725 65.9915 84.1725C31.1713 84.1725 2.53544 73.38 2.05351 60.0862C1.57159 46.7925 29.425 36 64.2452 36ZM4.10153 116.58L4.77194 135.073C17.1717 167.598 127.799 161.315 130.853 133.408L130.184 114.935C125.756 145.57 14.1004 147.776 4.10153 116.58ZM2.04254 68.4367L2.69725 86.4964C15.0695 118.263 126.384 113.97 129.475 86.7229L128.82 68.673C124.355 98.5986 12.015 98.9039 2.04254 68.4367ZM2.88859 91.7745L3.559 110.268C15.9588 142.793 127.27 138.401 130.336 110.494L129.667 92.0207C125.227 122.655 12.8874 122.97 2.88859 91.7745Z" fill="white"/>
<path fill-rule="evenodd" clip-rule="evenodd" d="M22.8056 42.0066L18.7916 44.5425V76.1799C8.59424 71.913 2.2777 66.2702 2.05352 60.0862C1.79254 52.8873 9.84105 46.4218 22.8056 42.0066ZM18.7916 148.475V161.111C72.7907 166.835 101.606 165.728 152.108 161.111C145.881 108.049 141.005 79.0062 118.779 34.1176L89.2956 0L22.8056 42.0066C33.7816 38.2685 48.2812 36 64.2452 36C99.0774 36 127.701 46.7925 128.183 60.0862C128.665 73.3898 100.812 84.1725 65.9915 84.1725C47.3691 84.1725 30.5155 81.0855 18.7916 76.1799V83.1032C10.2043 79.4548 4.04978 74.5691 2.04254 68.4367L2.69725 86.4964C5.02342 92.4691 10.8472 97.167 18.7916 100.677V106.41C10.6502 102.718 4.83344 97.8423 2.88859 91.7745L3.55901 110.268C5.80402 116.156 11.2914 120.835 18.7916 124.383V130.507C11.2925 126.989 5.95343 122.357 4.10153 116.58L4.77194 135.073C6.89961 140.654 11.9194 145.092 18.7916 148.475ZM18.7916 148.475V130.507C51.782 145.983 126.576 139.896 130.184 114.935L130.853 133.408C128.323 156.527 51.9695 164.805 18.7916 148.475ZM18.7916 124.383C52.717 140.432 127.825 133.348 130.336 110.494L129.667 92.0207C126.091 116.697 52.507 121.701 18.7916 106.41V124.383ZM18.7916 100.677C53.1015 115.838 126.965 108.847 129.475 86.7229L128.82 68.673C125.254 92.5752 52.8681 97.581 18.7916 83.1032V100.677Z" fill="#D01F26"/>
</svg>
